<?xml version="1.0" encoding="UTF-8"?>
<!-- Generator: Adobe Illustrator 27.4.1, SVG Export Plug-In . SVG Version: 6.00 Build 0)  -->
<svg xmlns="http://www.w3.org/2000/svg" xmlns:xlink="http://www.w3.org/1999/xlink" version="1.1" id="Capa_1" x="0px" y="0px" viewBox="0 0 451.6 134.7" style="enable-background:new 0 0 451.6 134.7;" xml:space="preserve">
<style type="text/css">
	.st0{fill:#476DB7;}
	.st1{fill:#969798;}
	.st2{fill-rule:evenodd;clip-rule:evenodd;fill:#476DB7;}
</style>
<g>
	<g>
		<path class="st0" d="M227.8,47.7h-16.9c-0.8,0-1.5,0.5-1.8,1.2l-18,49.8h-0.3l-18.2-49.8c-0.3-0.7-1-1.2-1.7-1.2h-16.8    c-1,0-1.9,0.8-1.9,1.9v68c0,1,0.8,1.9,1.9,1.9h8.4c1,0,1.9-0.8,1.9-1.9V61.8h0.2l21,56.5c0.3,0.7,1,1.2,1.7,1.2h6.3    c0.8,0,1.5-0.5,1.8-1.2l21.4-56.5h0.2v55.8c0,1,0.8,1.9,1.9,1.9h8.9c1,0,1.9-0.8,1.9-1.9V49.6C229.6,48.5,228.8,47.7,227.8,47.7"></path>
		<path class="st0" d="M290.6,108h-34.7V87.7H287c1,0,1.9-0.8,1.9-1.9v-7c0-1-0.8-1.9-1.9-1.9h-31.1V58.8h32.9c1,0,1.9-0.8,1.9-1.9    v-7.4c0-1-0.8-1.9-1.9-1.9H245c-1,0-1.9,0.8-1.9,1.9v68c0,1,0.8,1.9,1.9,1.9h45.7c1,0,1.9-0.8,1.9-1.9v-7.6    C292.4,108.9,291.6,108,290.6,108"></path>
		<path class="st0" d="M357.4,55.5c-6.8-5.1-16.4-7.8-26.9-7.8H307c-1,0-1.9,0.8-1.9,1.9v68c0,1,0.8,1.9,1.9,1.9h23.6    c10.1,0,19.8-3.1,26.9-8.5c8.4-6.4,12.8-15.9,12.8-27.4c0-6.4-1.2-12.1-3.6-17C364.6,62.2,361.4,58.5,357.4,55.5 M328.6,108.2    h-10.6V58.6h10.6c18.3,0,28,8.6,28,24.9C356.6,105.8,337,108.2,328.6,108.2"></path>
		<path class="st0" d="M420.3,83.6c-4-3.1-9.1-4.8-14-6.3c-4.3-1.4-7.5-2.4-9.9-4c-2.6-1.7-3.8-4-3.8-7.1c0-6.8,6.6-9.8,12.7-9.8    c4.3,0,8.8,1.8,11.9,4.8c0.3,0.3,0.8,0.5,1.3,0.5h0.1c0.5,0,1-0.2,1.3-0.6l5.6-6.2c0.3-0.4,0.5-0.9,0.5-1.4c0-0.5-0.3-1-0.7-1.3    c-5-4-12.4-6.4-19.4-6.4c-13.1,0-26.3,6.5-26.3,21.1c0,6.1,1.9,10.7,5.8,14.2c3.5,3.1,8.2,4.9,12.3,6.2l0.8,0.2    c8.4,2.6,15.7,4.9,15.7,12.2c0,7.4-6.5,10.6-13,10.6c-5.2,0-10.9-2.5-14.5-6.4c-0.3-0.4-0.8-0.6-1.3-0.6h-0.1    c-0.5,0-0.9,0.2-1.3,0.5l-6.3,5.9c-0.4,0.3-0.6,0.8-0.6,1.3c0,0.5,0.2,1,0.6,1.4c5.5,5.4,14.4,8.8,23.3,8.8c7.2,0,13.8-2,18.4-5.7    c5.1-4.1,7.8-10,7.8-17.2C427.3,92,425,87.2,420.3,83.6"></path>
		<path class="st1" d="M194.9,36.3c3.9,0,7.1-1.5,9.3-4.2c0.1-0.1,0.1-0.2,0.1-0.3c0-0.1-0.1-0.2-0.1-0.2l-3.3-2.3    c-0.1,0-0.1-0.1-0.2-0.1c-0.1,0-0.2,0.1-0.3,0.1c-1.2,1.6-3.1,2.5-5.4,2.5c-4.5,0-7.5-3.3-7.5-8.2c0-4.7,3.2-8.1,7.7-8.1    c1.6,0,3.8,0.6,5,2.3c0.1,0.1,0.1,0.1,0.2,0.1h0.1c0.1,0,0.1,0,0.2-0.1l3.1-2.5c0.2-0.1,0.2-0.3,0.1-0.5c-2.1-2.7-6-3.7-8.7-3.7    c-7.6,0-12.9,5.1-12.9,12.5C182.2,31.1,187.4,36.3,194.9,36.3"></path>
		<path class="st1" d="M359.7,32.1c0.1-0.1,0.1-0.2,0.1-0.3c0-0.1-0.1-0.2-0.1-0.2l-3.3-2.3c-0.1,0-0.1-0.1-0.2-0.1    c-0.1,0-0.2,0.1-0.3,0.1c-1.2,1.6-3.1,2.5-5.4,2.5c-4.5,0-7.5-3.3-7.5-8.2c0-4.7,3.2-8.1,7.7-8.1c1.6,0,3.8,0.6,5,2.3    c0.1,0.1,0.1,0.1,0.2,0.1c0.1,0,0.2,0,0.2-0.1l3.2-2.5c0.1-0.1,0.2-0.3,0.1-0.5c-2.1-2.7-6-3.7-8.7-3.7c-7.6,0-13,5.1-13,12.5    c0,7.4,5.2,12.6,12.8,12.6C354.3,36.3,357.5,34.9,359.7,32.1"></path>
		<path class="st1" d="M378.3,35.5l2-5.1h9.6l2.1,5.1c0.1,0.1,0.2,0.2,0.3,0.2h4.7c0.1,0,0.2-0.1,0.3-0.2c0.1-0.1,0.1-0.2,0-0.3    l-10-23.2c-0.1-0.1-0.2-0.2-0.3-0.2h-3.6c-0.1,0-0.3,0.1-0.3,0.2L373,35.2c-0.1,0.1,0,0.2,0,0.3c0.1,0.1,0.2,0.2,0.3,0.2h4.6    C378.1,35.7,378.3,35.6,378.3,35.5 M385.1,18l3.1,8.1H382L385.1,18z"></path>
		<path class="st1" d="M319.7,11.8h-4.1c-0.2,0-0.4,0.2-0.4,0.4v23.2c0,0.2,0.2,0.4,0.4,0.4h4.1c0.2,0,0.4-0.2,0.4-0.4V12.1    C320,11.9,320,11.8,319.7,11.8"></path>
		<path class="st1" d="M296.9,35.4V12.1c0-0.2-0.2-0.4-0.4-0.4h-4.1c-0.2,0-0.4,0.2-0.4,0.4v16.3L281.8,12c-0.1-0.1-0.2-0.2-0.3-0.2    H276c-0.2,0-0.3,0.2-0.3,0.4v23.2c0,0.2,0.2,0.4,0.3,0.4h4.1c0.2,0,0.4-0.2,0.4-0.4V18.6l10.4,17c0.1,0.1,0.2,0.2,0.3,0.2h5.2    C296.7,35.7,296.9,35.6,296.9,35.4"></path>
		<path class="st1" d="M252.5,35.7h4.1c0.2,0,0.4-0.2,0.4-0.4V12.1c0-0.2-0.2-0.4-0.4-0.4h-4.1c-0.2,0-0.3,0.2-0.3,0.4v23.2    C252.1,35.6,252.3,35.7,252.5,35.7"></path>
		<path class="st1" d="M234.9,31.3h-9.5V12.1c0-0.2-0.2-0.4-0.3-0.4H221c-0.2,0-0.4,0.2-0.4,0.4v23.2c0,0.2,0.2,0.4,0.4,0.4h14    c0.2,0,0.4-0.2,0.4-0.4v-3.7C235.2,31.5,235.1,31.3,234.9,31.3"></path>
		<path class="st0" d="M127.2,11.2c0.7,0.3,0.3,0.8,0.3,1.6c-0.3,4.4-3.6,1.1-4.1,3.2c-0.3,1.1-0.9,4.4,2.4,3.4l0.3,0.7l-0.3,0.4    c-0.8-0.7-1.5-0.6-1.5-0.5c-1.2,0.9-2.3,3.2-3.9,4.2c-0.9,0.5-1.8-0.4-2.5-1c-4.1-3.6-0.5-4-0.5-7.6c-5.1,0.6-2.6,1.6-3.6,3.8    c-0.8,1.7-2.4,2.9-2.5,5c-0.7,0.6-1,0.6-2.2,1.1c0.8,7.3,0.3,9.8-3.8,9.3c-1.8-0.3-2.8,5.2-4.4,7c-1,1.1-3.4,1.6-4.2,0.5l-0.3-0.1    c-2.3,3.5-1.5,0.5-3.8,0.5c-1.4,3-3.9,1.9-5.5,3.4c0,0-2.9,8.4-4.9,9.8c-0.9,0.6,2.7,3.2,3.8,3.8c3,1.1,4.7,1.4,8.3,2.9    c4.3,2.6,18.8,11.3,20.2,16.7c0.6,2.3-2.2,1.7-3.3,2.9c-1.9,2.1-1,3.4-4.5,6.7c-1.3,1.2-0.9-3.2-3.4-0.6c-2.8,2.9-5.5,4.3-7.3,6.7    c-0.8,1.2-1.7,2.8-2.5,4.1c-0.1,0.1-0.9,0.6-0.9,0.6c-2.7,2.3-5.3,1.9-7.4,5.9c-0.2,0.5-0.8,0.5-0.9,1l0.5,0.5h0.3    c0.6,0.1,1.3-0.1,1.6,0.5c0.1,1.4-0.8,5.7,0.8,6.4c-0.1,0.7-1.8,3.8,7.8,5.9c0.7,0.2,0.1,0.5-0.2,1.3c-0.2,0.3-0.2,0.6-0.4,0.9    c-6.3,1.4-3.8-2-5.9-2.2c-4-0.4-7.6-4.6-9.6-4.7c-6.9-2-5.5-4.2-5.5-4.6c1.1-3.1,4.6-4.3,6.8-6.4c3-3.4,6.2-7.5,9.2-10.9    c4.8-5.3,2.8-5.4,4.8-7.4c2-1.9,3.8-3,7.4-4.2c0.6-0.1,2.8-0.7,3.4-0.9l1.2-0.1l1.2-0.1v-0.1c1.9-0.7,1.1-2.4-0.2-2.6    c-1.2-0.2-2.1,1.4-3.4,1c-2.5-0.8-0.5-2.5-1.8-3.2c-2-0.5-5.6-1.3-7.6-1.7c-2.3-1-3.5-1.1-5.8-2.1c-2.7-0.4-6.8-0.6-9.1-1.3    c-3.6-0.8-7.1-0.9-10.5-2.4C64.3,66,59,63.1,58.3,57.7v-2c0-2.3,0.3-4,1.9-5.5c2.9-2.9,8.1-5.1,13.5-7.9c6.4-3.4,8-11.1,12.5-13.8    l0.4-0.2c2.8-0.8,9.5,3.6,13,2.9c0.6-0.1,1.7,0.9,3.8-2.5c0.5-0.8-0.8-3.6-2-3.8c-4.4-0.8-8.7-0.4-14.3-0.4c-2-0.1-5-0.3-7-0.4    c-1.5,0.5-2.2,1.3-3.7,1.8c-4,0.6-9.3-0.4-12.8,1.3c-10.1,4.7-10.7,4.1-11.9,5.7c-0.9,1.3-0.5,3.1,0.1,4.1    c-0.9,0.8-2.1,3.1-3.3,2.5c-1.9-0.9-4-5.2-3.4-6.5c1.3-2.7,25.4-12.8,29.1-13.7l2-0.5c0.5-0.1,0.9-0.2,1.3-0.3    c4.6,0.2,12.7,0.4,18,0.4l1.9-0.1l0.8-0.1l1.6-0.3l2.6-0.9c3.2-1,6.1,2.2,7.5-2.1c0.2-0.1,0.9,0.6,1,0.5c2,1.7,1.8-5,3.7-4.8    c5.6,0.5,3.8,6.7,5,6.1c2.9,0.2,1.3-1.9,2.2-2.7s3,0.5,2.9-1.2c0-0.1-0.1-1-0.1-1.1C125.1,12.1,126.4,11.6,127.2,11.2"></path>
		<path class="st0" d="M57.8,70.1c0.8-0.1,0,3.8,3.4,5.9c0.8,0.5-2.7,3.6-3.7,4.6c-1.8,1.7-2.6,2.9-2.9,5.3    c-0.3,1.8,1.1,4.6-0.2,5.9c0,0-3.8,0.1-4,2.4c-0.2,1.5-3-0.4-5,0.8c-2.8,1.6-1.2,4-2.7,5.2c-1.1,0.5-2.6,0.9-3.7,1.4    c-1.7,1-3.6,2.1-5.3,3.1c-1.2,1.3-1.8,2.6-2.9,3.9c-1.5,1.3-1.5,0.3-2.5,0.7c-1.9,1.6-4.2,3.4-6.1,5c-2.1,1-1,1.5-6,2.8    c-1.9,1.2-3.4,3.6-5,5.1c-0.9,0.4-2.1,0.4-3.2,0.2c-0.2-0.1-0.8-0.1-1-0.2c-0.1-0.2-0.4-0.4-0.5-0.6c1.9-2.1,2.7-1.1,3.9-1.9    c0.2-1.3,3.8-3.2,5.9-4.9c5.8-4.8,14.7-17.1,22.4-17.1c1.1-2.4,6.6-4.1,7.5-5.4c0.7-1.9,1.1-3.7,1.8-5.6    C50.2,80.8,54.5,70.6,57.8,70.1"></path>
		<path class="st2" d="M133.2,43.3c1,3.7,3.7,3.5,3,4.2c-1.6,0.1-3.9,1.3-4.1,1.6c-0.2,0.3-3.9-0.2-4.5,0.1    c-2.6,1.5-11.1,4.7-14.6,3.3c-1-0.4-0.2-2.1-0.2-3.2c0-0.8-0.5-3.9,0.2-3.6c3.2,1.2,7,1.3,8.5,1.3c1,0,2.5-0.4,3.5-0.4    c1.3-0.3,3-0.6,4.4-0.9C130.8,45,132,44.4,133.2,43.3"></path>
		<path class="st2" d="M137.9,39.3c2.4,0.4,1.8,5.9,1.5,6.2c-1.4,1.5-1.6-0.2-2-2.6C137,40.8,135.3,41.4,137.9,39.3"></path>
		<path class="st2" d="M107.4,36.3c2.8,0.4,3.8,5.2,4.7,8.2c-0.3,0.7-1,3-1.3,3.7c-2.9-0.6-2.2-3.5-2.1-6.8    C108.8,38.4,104.7,38.4,107.4,36.3"></path>
	</g>
</g>
<path class="st0" d="M440.1,112.8c0-1.5-0.9-2.3-2.8-2.3l-3.1,0l0,8.1l1.2,0l0-3.5l1.3,0l2.2,3.5l1.3,0l-2.3-3.6  C439.1,114.8,440.1,114.2,440.1,112.8z M436.7,114l-1.3,0l0-2.6l1.6,0c0.8,0,1.8,0.1,1.8,1.3C438.8,114,437.8,114.1,436.7,114z"></path>
<path class="st0" d="M436.9,107.6c-3.8,0-6.9,2.9-7,6.9c0,3.9,3.1,6.9,6.9,7c3.8,0,6.9-2.9,7-6.9  C443.8,110.6,440.6,107.6,436.9,107.6z M436.8,120.4c-3.2,0-5.7-2.6-5.7-5.9c0-3.4,2.6-5.9,5.7-5.9c3.2,0,5.7,2.6,5.7,5.9  C442.5,117.9,440,120.4,436.8,120.4z"></path>
</svg>
