<?xml version="1.0" encoding="UTF-8"?>
<svg id="Capa_1" xmlns="http://www.w3.org/2000/svg" viewBox="0 0 187 51">
  <defs>
    <style>
      .cls-1 {
        fill: #00a298;
      }

      .cls-2 {
        fill: #ff595a;
      }

      .cls-3 {
        fill: #00a19b;
      }

      .cls-4 {
        fill: #5b7e96;
      }
    </style>
  </defs>
  <g>
    <g>
      <path class="cls-1" d="m42.08,12.31h14.75v4.8h-9.01v3.4h7.67v4.8h-7.67v3.87h9.34v4.8h-15.08V12.31Z" />
      <path class="cls-1" d="m60.83,31.87l2.4-3.54c2.1,1.23,4.4,1.87,6.54,1.87,1.47,0,2.07-.4,2.07-1,0-.8-.87-.93-3.67-1.53-4.6-1-6.27-2.74-6.27-5.34,0-3.27,3.1-5.4,7.94-5.4,3.14,0,5.64,1.23,7.41,2.34l-2.54,3.4c-1.73-1-3.67-1.53-5.4-1.53-1.07,0-1.73.33-1.73.93,0,.73.87.8,3.47,1.4,5,1.13,6.47,2.64,6.47,5.4,0,3.14-2.97,5.54-8.54,5.54-2.87,0-6.01-1.13-8.14-2.54Z" />
      <path class="cls-1" d="m80.69,25.66c0-5.47,4.27-8.74,8.74-8.74,5.27,0,7.94,3.6,7.94,8.07,0,1-.17,2-.23,2.4h-12.11v-3.74h8.14l-.8,1c0-2.2-.87-3.4-2.74-3.4-2.2,0-3.4,1.4-3.4,4.4s1.53,4.4,4.6,4.4c1.33,0,2.54-.33,4-1l1.87,3.4c-2,1.27-4.6,1.94-6.67,1.94-5.27,0-9.34-3.2-9.34-8.74Z" />
      <path class="cls-1" d="m101.17,17.32h4.67l.4,2h.13c1.33-1.27,3.14-2.4,5.57-2.4,3.7,0,5.3,2.67,5.3,6.81v10.28h-5.74v-9.54c0-1.87-.47-2.67-1.93-2.67-1.07,0-1.8.47-2.67,1.27v10.94h-5.74v-16.68Z" />
      <path class="cls-1" d="m121.12,25.66c0-5.54,4.6-8.74,9.78-8.74,2.6,0,4.9.87,6.31,2.2l-2.6,3.54c-1.23-.83-2.3-1.13-3.37-1.13-2.5,0-4.24,1.6-4.24,4.14s1.7,4.14,4.04,4.14c1.63,0,2.97-.7,4.1-1.4l2.27,3.6c-2.07,1.7-4.74,2.4-6.94,2.4-5.27,0-9.34-3.2-9.34-8.74Z" />
      <path class="cls-1" d="m140.95,21.79h0v-4.47h5.73v16.68h-5.74v-12.21Zm-1-10.08c0-2,1.53-3.4,3.67-3.4s3.67,1.4,3.67,3.4-1.53,3.34-3.67,3.34-3.67-1.33-3.67-3.34Z" />
      <path class="cls-1" d="m150.58,29.26c0-3.74,2.94-5.67,10.54-6.07-.2-1.2-1.33-1.73-3.2-1.73-1.4,0-2.8.47-4.8,1.4l-2-3.74c2.54-1.4,5.14-2.2,7.94-2.2,4.74,0,7.81,2.34,7.81,7.81v9.27h-4.67l-.4-1.73h-.13c-1.63,1.2-3.6,2.14-5.67,2.14-3.47,0-5.4-2.4-5.4-5.14Zm10.54-.53v-2.14c-4.07.13-5.07,1.07-5.07,2.2,0,.77.6,1.2,1.8,1.2,1.33,0,2.37-.6,3.27-1.27Z" />
      <polygon class="cls-1" points="171.19 17 171.19 17 171.19 10.78 176.93 10.78 176.93 34 171.19 34 171.19 17" />
    </g>
    <g>
      <path class="cls-3" d="m42.08,12.31h14.75v4.8h-9.01v3.4h7.67v4.8h-7.67v3.87h9.34v4.8h-15.08V12.31Z" />
      <path class="cls-3" d="m60.83,31.87l2.4-3.54c2.1,1.23,4.4,1.87,6.54,1.87,1.47,0,2.07-.4,2.07-1,0-.8-.87-.93-3.67-1.53-4.6-1-6.27-2.74-6.27-5.34,0-3.27,3.1-5.4,7.94-5.4,3.14,0,5.64,1.23,7.41,2.34l-2.54,3.4c-1.73-1-3.67-1.53-5.4-1.53-1.07,0-1.73.33-1.73.93,0,.73.87.8,3.47,1.4,5,1.13,6.47,2.64,6.47,5.4,0,3.14-2.97,5.54-8.54,5.54-2.87,0-6.01-1.13-8.14-2.54Z" />
      <path class="cls-3" d="m80.69,25.66c0-5.47,4.27-8.74,8.74-8.74,5.27,0,7.94,3.6,7.94,8.07,0,1-.17,2-.23,2.4h-12.11v-3.74h8.14l-.8,1c0-2.2-.87-3.4-2.74-3.4-2.2,0-3.4,1.4-3.4,4.4s1.53,4.4,4.6,4.4c1.33,0,2.54-.33,4-1l1.87,3.4c-2,1.27-4.6,1.94-6.67,1.94-5.27,0-9.34-3.2-9.34-8.74Z" />
      <path class="cls-3" d="m101.17,17.32h4.67l.4,2h.13c1.33-1.27,3.14-2.4,5.57-2.4,3.7,0,5.3,2.67,5.3,6.81v10.28h-5.74v-9.54c0-1.87-.47-2.67-1.93-2.67-1.07,0-1.8.47-2.67,1.27v10.94h-5.74v-16.68Z" />
      <path class="cls-3" d="m121.12,25.66c0-5.54,4.6-8.74,9.78-8.74,2.6,0,4.9.87,6.31,2.2l-2.6,3.54c-1.23-.83-2.3-1.13-3.37-1.13-2.5,0-4.24,1.6-4.24,4.14s1.7,4.14,4.04,4.14c1.63,0,2.97-.7,4.1-1.4l2.27,3.6c-2.07,1.7-4.74,2.4-6.94,2.4-5.27,0-9.34-3.2-9.34-8.74Z" />
      <path class="cls-3" d="m140.95,21.79h0v-4.47h5.73v16.68h-5.74v-12.21Zm-1-10.08c0-2,1.53-3.4,3.67-3.4s3.67,1.4,3.67,3.4-1.53,3.34-3.67,3.34-3.67-1.33-3.67-3.34Z" />
      <path class="cls-3" d="m150.58,29.26c0-3.74,2.94-5.67,10.54-6.07-.2-1.2-1.33-1.73-3.2-1.73-1.4,0-2.8.47-4.8,1.4l-2-3.74c2.54-1.4,5.14-2.2,7.94-2.2,4.74,0,7.81,2.34,7.81,7.81v9.27h-4.67l-.4-1.73h-.13c-1.63,1.2-3.6,2.14-5.67,2.14-3.47,0-5.4-2.4-5.4-5.14Zm10.54-.53v-2.14c-4.07.13-5.07,1.07-5.07,2.2,0,.77.6,1.2,1.8,1.2,1.33,0,2.37-.6,3.27-1.27Z" />
      <polygon class="cls-3" points="171.19 17 171.19 17 171.19 10.78 176.93 10.78 176.93 34 171.19 34 171.19 17" />
    </g>
    <g>
      <path class="cls-4" d="m105.02,41.04h.9v2.03c-.26.21-.57.37-.92.48-.35.11-.71.17-1.08.17-.52,0-.99-.11-1.41-.34-.42-.23-.75-.54-.98-.94s-.36-.85-.36-1.35.12-.95.36-1.35.57-.71.99-.94c.42-.23.89-.34,1.42-.34.43,0,.82.07,1.17.21s.64.35.88.62l-.6.58c-.39-.39-.86-.58-1.41-.58-.36,0-.68.08-.96.23s-.5.36-.66.63-.24.58-.24.93.08.65.24.92c.16.27.38.49.66.64.28.16.6.23.95.23.4,0,.75-.09,1.05-.26v-1.59Z" />
      <path class="cls-4" d="m110.78,39.72v.87c-.08-.01-.15-.02-.21-.02-.35,0-.63.1-.83.31-.2.21-.3.5-.3.89v1.89h-.91v-3.89h.87v.57c.26-.41.72-.61,1.39-.61Z" />
      <path class="cls-4" d="m116.82,39.76v3.89h-.87v-.5c-.15.17-.33.31-.55.4s-.45.14-.71.14c-.52,0-.93-.14-1.23-.43-.3-.29-.45-.72-.45-1.29v-2.22h.91v2.1c0,.35.08.61.24.78.16.17.38.26.67.26.33,0,.58-.1.78-.3s.29-.49.29-.87v-1.97h.91Z" />
      <path class="cls-4" d="m122.65,39.96c.3.17.53.4.7.7s.26.65.26,1.04-.09.74-.26,1.05c-.17.3-.4.54-.7.7-.3.17-.64.25-1.02.25-.53,0-.94-.17-1.25-.52v1.89h-.91v-5.31h.87v.51c.15-.18.34-.32.56-.42.22-.09.47-.14.73-.14.38,0,.72.08,1.02.25Zm-.29,2.62c.22-.22.32-.52.32-.88s-.11-.66-.32-.88c-.22-.22-.49-.34-.83-.34-.22,0-.42.05-.59.15-.18.1-.31.24-.42.43-.1.18-.15.4-.15.64s.05.46.15.64c.1.18.24.33.42.43.17.1.37.15.59.15.34,0,.61-.11.83-.34Z" />
      <path class="cls-4" d="m126.62,43.45c-.32-.17-.56-.41-.74-.71-.18-.3-.27-.65-.27-1.03s.09-.73.27-1.03.42-.54.74-.71c.32-.17.67-.26,1.06-.26s.76.09,1.07.26c.32.17.56.41.74.71s.27.64.27,1.03-.09.73-.27,1.03c-.18.3-.42.54-.74.71-.32.17-.67.26-1.07.26s-.75-.08-1.06-.26Zm1.9-.86c.22-.22.33-.52.33-.88s-.11-.66-.33-.88-.5-.34-.83-.34-.61.11-.83.34c-.22.22-.32.52-.32.88s.11.66.32.88c.22.22.49.34.83.34s.61-.11.83-.34Z" />
      <path class="cls-4" d="m138.96,42.47h-2.55l-.5,1.18h-.98l2.3-5.1h.93l2.3,5.1h-.99l-.51-1.18Zm-.31-.74l-.96-2.23-.96,2.23h1.92Z" />
      <path class="cls-4" d="m142.48,38.24h.91v5.41h-.91v-5.41Z" />
      <path class="cls-4" d="m149.69,42h-3.05c.05.29.19.51.42.68.23.17.51.25.84.25.43,0,.78-.14,1.06-.42l.49.56c-.18.21-.4.37-.66.47-.27.11-.57.16-.9.16-.43,0-.8-.08-1.13-.26-.33-.17-.58-.41-.75-.71-.18-.3-.27-.65-.27-1.03s.09-.72.26-1.02.41-.54.72-.71.65-.26,1.04-.26.72.08,1.02.25c.3.17.53.4.7.71.17.3.25.65.25,1.05,0,.06,0,.15-.01.27Zm-2.69-1.29c-.2.17-.32.4-.37.69h2.21c-.04-.28-.16-.51-.36-.69-.2-.17-.45-.26-.74-.26s-.54.09-.74.26Z" />
      <path class="cls-4" d="m158.12,40.14c.29.28.43.71.43,1.28v2.23h-.91v-2.11c0-.34-.08-.6-.23-.77s-.37-.26-.65-.26c-.31,0-.55.1-.74.3s-.28.49-.28.86v1.98h-.91v-2.11c0-.34-.08-.6-.23-.77s-.37-.26-.65-.26c-.31,0-.56.1-.74.3s-.27.49-.27.87v1.98h-.91v-3.89h.87v.5c.15-.17.33-.31.55-.4.22-.09.46-.14.73-.14.29,0,.55.05.78.16.23.11.4.27.54.48.16-.2.37-.36.62-.48.25-.11.53-.17.84-.17.49,0,.88.14,1.17.43Z" />
      <path class="cls-4" d="m163.98,40.13c.3.27.46.69.46,1.24v2.28h-.86v-.47c-.11.17-.27.3-.48.39-.21.09-.46.13-.75.13s-.55-.05-.77-.15c-.22-.1-.39-.24-.51-.42-.12-.18-.18-.38-.18-.6,0-.35.13-.63.39-.84.26-.21.67-.32,1.23-.32h1.01v-.06c0-.27-.08-.48-.24-.63s-.4-.22-.73-.22c-.22,0-.43.03-.65.1-.21.07-.39.16-.54.28l-.36-.66c.2-.16.45-.27.74-.36s.59-.12.91-.12c.57,0,1.01.14,1.32.41Zm-.83,2.76c.18-.1.3-.25.38-.45v-.45h-.94c-.52,0-.79.17-.79.52,0,.17.07.3.2.39.13.1.31.15.55.15s.43-.05.61-.16Z" />
      <path class="cls-4" d="m170.45,40.15c.3.29.44.71.44,1.28v2.23h-.91v-2.11c0-.34-.08-.6-.24-.77s-.39-.26-.69-.26c-.34,0-.6.1-.79.3-.19.2-.29.49-.29.87v1.97h-.91v-3.89h.87v.5c.15-.18.34-.32.57-.41.23-.09.49-.14.77-.14.49,0,.88.14,1.18.43Z" />
      <path class="cls-4" d="m176.31,40.13c.3.27.46.69.46,1.24v2.28h-.86v-.47c-.11.17-.27.3-.48.39-.21.09-.46.13-.75.13s-.55-.05-.77-.15c-.22-.1-.39-.24-.51-.42-.12-.18-.18-.38-.18-.6,0-.35.13-.63.39-.84.26-.21.67-.32,1.23-.32h1.01v-.06c0-.27-.08-.48-.24-.63s-.4-.22-.73-.22c-.22,0-.43.03-.65.1-.21.07-.39.16-.54.28l-.36-.66c.2-.16.45-.27.74-.36s.59-.12.91-.12c.57,0,1.01.14,1.32.41Zm-.83,2.76c.18-.1.3-.25.38-.45v-.45h-.94c-.52,0-.79.17-.79.52,0,.17.07.3.2.39.13.1.31.15.55.15s.43-.05.61-.16Z" />
    </g>
    <g>
      <path class="cls-2" d="m22.78,18.12l.8-.74c2.67-2.48,2.82-6.67.34-9.34s-6.67-2.82-9.34-.34-2.82,6.67-.34,9.34l4.49,4.83,2.34-2.17-4.49-4.83c-1.28-1.38-1.2-3.54.18-4.82s3.54-1.2,4.82.18,1.2,3.54-.18,4.82l-.8.74,2.17,2.34Z" />
      <path class="cls-2" d="m24.29,27.59l.74.8c2.48,2.67,6.67,2.82,9.34.34s2.82-6.67.34-9.34c-2.48-2.67-6.67-2.82-9.34-.34l-4.83,4.49,2.17,2.34,4.83-4.49c1.38-1.28,3.54-1.2,4.82.18s1.2,3.54-.18,4.82-3.54,1.2-4.82-.18l-.74-.8-2.34,2.17Z" />
      <path class="cls-2" d="m14.92,29.79l-.8.74c-2.67,2.48-2.82,6.67-.34,9.34s6.67,2.82,9.34.34,2.82-6.67.34-9.34l-4.49-4.83-2.34,2.17,4.49,4.83c1.28,1.38,1.2,3.54-.18,4.82s-3.54,1.2-4.82-.18-1.2-3.54.18-4.82l.8-.74-2.17-2.34Z" />
      <path class="cls-2" d="m14.56,21.57l-5.04,4.25c-1.09.92-2.58,1.04-3.77.42l7.41-6.28-.12-.15.04-.03-.7-.83c-.18-.21-.37-.4-.56-.58l-.02-.02h0c-2.41-2.22-6.16-2.35-8.73-.19-2.78,2.35-3.14,6.53-.79,9.31,2.35,2.78,6.53,3.14,9.31.79l5.04-4.25-2.06-2.44Zm-9.44-.96c1.22-1.03,2.96-1.05,4.2-.16l-5.05,4.28c-.68-1.37-.37-3.09.85-4.12Z" />
    </g>
  </g>
  <path class="cls-3" d="m186.28,31.05c0,1.56-1.19,2.76-2.76,2.76s-2.76-1.19-2.76-2.76,1.19-2.76,2.76-2.76,2.76,1.19,2.76,2.76Zm-.56,0c0-1.33-.94-2.21-2.19-2.21s-2.19.89-2.19,2.21.94,2.21,2.19,2.21,2.19-.89,2.19-2.21Zm-.78,1.43h-.92l-.49-1.01h-.34v1.01h-.82v-2.99h1.34c.7,0,1.17.27,1.17.98,0,.45-.21.73-.54.88l.6,1.14Zm-.88-1.99c0-.19-.11-.32-.37-.32h-.5v.65h.49c.27,0,.38-.11.38-.33Z" />
</svg>