<svg width="71" height="71" viewBox="0 0 71 71" fill="none" xmlns="http://www.w3.org/2000/svg">
<path d="M17.75 0V17.75H0V53.25H17.75V71H53.25V53.25H71V17.75H53.25V0H17.75Z" fill="#2324ED"/>
<path d="M37.4166 20.9041V23.7658C43.0125 24.4599 47.3333 29.2199 47.3333 34.9999C47.3333 39.5474 44.6133 43.4999 40.6466 45.3133L37.4166 42.0833V49.1666H44.5L42.7716 47.4383C47.2058 45.0158 50.1666 40.3266 50.1666 34.9999C50.1666 27.6616 44.5708 21.6124 37.4166 20.9041ZM34.5833 20.8333C31.8208 21.1166 29.2 22.1933 27.0466 23.9641L29.0583 25.9758C30.6665 24.7364 32.5715 23.9403 34.5833 23.6666V20.8333ZM24.95 26.0466C23.1933 28.1999 22.1166 30.8208 21.8333 33.5833H24.6666C24.9358 31.5716 25.7291 29.6591 26.9758 28.0583L24.95 26.0466ZM27.5 29.3333V32.1666H31.75V33.5833H30.3333C28.775 33.5833 27.5 34.8583 27.5 36.4166V40.6666H34.5833V37.8333H30.3333V36.4166H31.75C33.3225 36.4166 34.5833 35.1558 34.5833 33.5833V32.1666C34.5833 31.4151 34.2848 30.6945 33.7534 30.1631C33.2221 29.6318 32.5014 29.3333 31.75 29.3333H27.5ZM36 29.3333V36.4166H40.25V40.6666H43.0833V36.4166H44.5V33.5833H43.0833V29.3333H40.25V33.5833H38.8333V29.3333H36ZM21.8333 36.4166C22.1166 39.1791 23.2075 41.7999 24.9783 43.9533L26.99 41.9416C25.7456 40.3349 24.9445 38.4298 24.6666 36.4166H21.8333ZM29.0725 44.0241L27.0466 46.0358C29.1991 47.7932 31.8192 48.8816 34.5833 49.1666V46.3333C32.574 46.0663 30.6719 45.2693 29.0725 44.0241Z" fill="white"/>
</svg>
