<svg width="71" height="71" viewBox="0 0 71 71" fill="none" xmlns="http://www.w3.org/2000/svg">
<path d="M17.75 0V17.75H0V53.25H17.75V71H53.25V53.25H71V17.75H53.25V0H17.75Z" fill="#2324ED"/>
<path d="M47.25 24.75V51H24.75V24.75H32.25C32.25 24.2324 32.3477 23.749 32.543 23.2998C32.7383 22.8506 33.0068 22.4502 33.3486 22.0986C33.6904 21.7471 34.0859 21.4785 34.5352 21.293C34.9844 21.1074 35.4727 21.0098 36 21C36.5176 21 37.001 21.0977 37.4502 21.293C37.8994 21.4883 38.2998 21.7568 38.6514 22.0986C39.0029 22.4404 39.2715 22.8359 39.457 23.2852C39.6426 23.7344 39.7402 24.2227 39.75 24.75H47.25ZM30.375 28.5H41.625V26.625H37.875V24.75C37.875 24.4863 37.8262 24.2422 37.7285 24.0176C37.6309 23.793 37.499 23.5977 37.333 23.4316C37.167 23.2656 36.9668 23.1289 36.7324 23.0215C36.498 22.9141 36.2539 22.8652 36 22.875C35.7363 22.875 35.4922 22.9238 35.2676 23.0215C35.043 23.1191 34.8477 23.251 34.6816 23.417C34.5156 23.583 34.3789 23.7832 34.2715 24.0176C34.1641 24.252 34.1152 24.4961 34.125 24.75V26.625H30.375V28.5ZM45.375 26.625H43.5V30.375H28.5V26.625H26.625V49.125H45.375V26.625ZM32.25 34.125H43.5V36H32.25V34.125ZM32.25 39.75H43.5V41.625H32.25V39.75ZM32.25 45.375H43.5V47.25H32.25V45.375ZM28.5 34.125H30.375V36H28.5V34.125ZM28.5 39.75H30.375V41.625H28.5V39.75ZM28.5 45.375H30.375V47.25H28.5V45.375Z" fill="white"/>
</svg>
