<svg width="71" height="71" viewBox="0 0 71 71" fill="none" xmlns="http://www.w3.org/2000/svg">
<path d="M17.75 0V17.75H0V53.25H17.75V71H53.25V53.25H71V17.75H53.25V0H17.75Z" fill="#2324ED"/>
<path d="M41.6667 27.8541C41.6667 28.0419 41.7413 28.2221 41.8741 28.355C42.007 28.4878 42.1871 28.5624 42.375 28.5624C42.5629 28.5624 42.743 28.4878 42.8759 28.355C43.0087 28.2221 43.0833 28.0419 43.0833 27.8541V26.7916C43.0833 26.6037 43.0087 26.4236 42.8759 26.2907C42.743 26.1579 42.5629 26.0833 42.375 26.0833C42.1871 26.0833 42.007 26.1579 41.8741 26.2907C41.7413 26.4236 41.6667 26.6037 41.6667 26.7916V27.8541ZM30.3333 35.9999V38.1249H31.75V35.9999H33.875V34.5833H31.75V32.4583H30.3333V34.5833H28.2083V35.9999H30.3333Z" fill="white"/>
<path fill-rule="evenodd" clip-rule="evenodd" d="M21.8333 31.0415C21.8333 30.4779 22.0572 29.9374 22.4557 29.5389C22.8542 29.1404 23.3947 28.9165 23.9583 28.9165H38.125C38.6886 28.9165 39.2291 29.1404 39.6276 29.5389C40.0261 29.9374 40.25 30.4779 40.25 31.0415V32.4582H40.9583V31.7498H41.6667V31.0415C41.6667 30.8536 41.7413 30.6735 41.8741 30.5406C42.007 30.4078 42.1871 30.3332 42.375 30.3332C42.5629 30.3332 42.743 30.4078 42.8759 30.5406C43.0087 30.6735 43.0833 30.8536 43.0833 31.0415V31.7498H43.7917V32.4582H44.3002C44.8345 32.4582 45.3492 32.6595 45.7417 33.022L49.4831 36.4751C49.6987 36.6742 49.8708 36.9157 49.9884 37.1845C50.106 37.4533 50.1667 37.7436 50.1667 38.037V43.7915H46.5357C46.3782 44.3994 46.0232 44.9378 45.5266 45.3222C45.0299 45.7065 44.4197 45.915 43.7917 45.915C43.1637 45.915 42.5534 45.7065 42.0568 45.3222C41.5601 44.9378 41.2051 44.3994 41.0476 43.7915H30.2441C30.0865 44.3994 29.7315 44.9378 29.2349 45.3222C28.7382 45.7065 28.128 45.915 27.5 45.915C26.872 45.915 26.2618 45.7065 25.7651 45.3222C25.2684 44.9378 24.9135 44.3994 24.7559 43.7915H21.8333V31.0415ZM41.0476 42.3748C41.2051 41.7669 41.5601 41.2285 42.0568 40.8442C42.5534 40.4598 43.1637 40.2513 43.7917 40.2513C44.4197 40.2513 45.0299 40.4598 45.5266 40.8442C46.0232 41.2285 46.3782 41.7669 46.5357 42.3748H48.75V38.8332H40.25V42.3748H41.0476ZM40.25 37.4165H48.4142L44.7805 34.0625C44.6497 33.9419 44.4782 33.8748 44.3002 33.8748H40.25V37.4165ZM38.125 30.3332C38.3129 30.3332 38.493 30.4078 38.6259 30.5406C38.7587 30.6735 38.8333 30.8536 38.8333 31.0415V42.3748H30.2441C30.0865 41.7669 29.7315 41.2285 29.2349 40.8442C28.7382 40.4598 28.128 40.2513 27.5 40.2513C26.872 40.2513 26.2618 40.4598 25.7651 40.8442C25.2684 41.2285 24.9135 41.7669 24.7559 42.3748H23.25V31.0415C23.25 30.8536 23.3246 30.6735 23.4575 30.5406C23.5903 30.4078 23.7705 30.3332 23.9583 30.3332H38.125ZM27.5 44.4998C27.8757 44.4998 28.2361 44.3506 28.5017 44.0849C28.7674 43.8192 28.9167 43.4589 28.9167 43.0832C28.9167 42.7074 28.7674 42.3471 28.5017 42.0814C28.2361 41.8158 27.8757 41.6665 27.5 41.6665C27.1243 41.6665 26.7639 41.8158 26.4983 42.0814C26.2326 42.3471 26.0833 42.7074 26.0833 43.0832C26.0833 43.4589 26.2326 43.8192 26.4983 44.0849C26.7639 44.3506 27.1243 44.4998 27.5 44.4998ZM45.2083 43.0832C45.2083 43.4589 45.0591 43.8192 44.7934 44.0849C44.5277 44.3506 44.1674 44.4998 43.7917 44.4998C43.4159 44.4998 43.0556 44.3506 42.7899 44.0849C42.5243 43.8192 42.375 43.4589 42.375 43.0832C42.375 42.7074 42.5243 42.3471 42.7899 42.0814C43.0556 41.8158 43.4159 41.6665 43.7917 41.6665C44.1674 41.6665 44.5277 41.8158 44.7934 42.0814C45.0591 42.3471 45.2083 42.7074 45.2083 43.0832Z" fill="white"/>
<path d="M44.8542 31.0416C44.8542 30.8537 44.9288 30.6735 45.0616 30.5407C45.1945 30.4079 45.3746 30.3332 45.5625 30.3332H46.625C46.8129 30.3332 46.993 30.4079 47.1259 30.5407C47.2587 30.6735 47.3333 30.8537 47.3333 31.0416C47.3333 31.2294 47.2587 31.4096 47.1259 31.5424C46.993 31.6753 46.8129 31.7499 46.625 31.7499H45.5625C45.3746 31.7499 45.1945 31.6753 45.0616 31.5424C44.9288 31.4096 44.8542 31.2294 44.8542 31.0416ZM44.3789 28.0375C44.3097 28.0999 44.2535 28.1753 44.2134 28.2595C44.1734 28.3436 44.1504 28.4348 44.1457 28.5279C44.141 28.621 44.1547 28.714 44.1861 28.8018C44.2174 28.8895 44.2657 28.9702 44.3283 29.0393C44.3908 29.1083 44.4664 29.1643 44.5507 29.2041C44.6349 29.2439 44.7262 29.2667 44.8193 29.2712C44.9123 29.2756 45.0054 29.2617 45.093 29.2301C45.1807 29.1986 45.2613 29.15 45.3302 29.0873L45.9776 28.5008C46.1162 28.3745 46.1991 28.1984 46.2081 28.011C46.2171 27.8237 46.1514 27.6405 46.0254 27.5015C45.8995 27.3625 45.7236 27.2792 45.5363 27.2697C45.349 27.2602 45.1656 27.3254 45.0263 27.451L44.3789 28.0375Z" fill="white"/>
</svg>
