<svg width="72" height="72" viewBox="0 0 72 72" fill="none" xmlns="http://www.w3.org/2000/svg">
<path d="M18 0V18H0V54H18V72H54V54H72V18H54V0H18Z" fill="#2324ED"/>
<path fill-rule="evenodd" clip-rule="evenodd" d="M40.6667 30.8062V40.2652C40.6667 41.293 40.2785 42.1069 39.6403 42.6474C39.0177 43.1737 38.2145 43.3911 37.4459 43.3585C36.5577 43.3217 35.6297 42.9357 35.0064 42.216C34.8456 43.5122 35.3089 44.3743 35.5192 44.6017L36.0009 45.1209L34.9625 46.0842L34.4808 45.565C33.9042 44.9431 33.2852 43.4775 33.6811 41.5629C33.0751 41.6898 32.4496 41.6913 31.843 41.5672C31.2076 41.4326 30.5829 41.1429 30.1097 40.6562C29.6252 40.1583 29.3334 39.4875 29.3334 38.68C29.3334 37.5155 29.7492 36.674 30.4922 36.0592C31.1793 35.4904 32.1122 35.1489 33.0557 34.8437C33.2767 34.7728 33.5024 34.7013 33.7328 34.629C35.5313 34.0645 37.5748 33.4227 39.5008 31.7936L40.6667 30.8062ZM35.6807 40.2213C35.979 39.6745 36.3891 39.0894 36.943 38.4739L37.4176 37.9476L36.3643 36.9998L35.8897 37.5261C35.1885 38.3053 34.677 39.0632 34.3144 39.7822C33.7817 40.1732 32.9246 40.3481 32.1362 40.1809C31.7091 40.0903 31.3599 39.9097 31.1247 39.6681C30.9009 39.4386 30.75 39.1241 30.75 38.6793C30.75 37.91 30.998 37.4787 31.3953 37.1493C31.848 36.7753 32.5315 36.5019 33.492 36.1909C33.7012 36.1238 33.9198 36.0547 34.1479 35.9834C35.6205 35.5237 37.4487 34.9527 39.25 33.7514V40.2652C39.25 40.9134 39.0184 41.3178 38.7259 41.565C38.4177 41.8257 37.98 41.9631 37.5054 41.9433C36.5647 41.9043 35.7275 41.2888 35.6807 40.2213Z" fill="white"/>
<path fill-rule="evenodd" clip-rule="evenodd" d="M35 50.0417L34.6912 50.6792L34.6884 50.6777L34.6799 50.6735L34.6494 50.6586L34.5361 50.602C34.4383 50.5524 34.2966 50.4787 34.1174 50.3824C31.9947 49.2334 29.9989 47.864 28.1632 46.2967C24.9304 43.5151 21.5417 39.3905 21.5417 34.2628C21.5417 31.9586 22.3046 29.7267 23.6107 28.0578C24.9211 26.3855 26.806 25.25 29.0238 25.25C31.656 25.25 33.6542 26.7425 35 28.8469C36.3451 26.7432 38.3434 25.25 40.9769 25.25C43.194 25.25 45.0789 26.3855 46.3886 28.0585C47.6962 29.7267 48.4584 31.9579 48.4584 34.2635C48.4584 39.1957 45.064 43.321 41.8418 46.1437C39.8833 47.8455 37.7505 49.3356 35.4789 50.5892L35.3662 50.6494L35.3358 50.6657L35.328 50.67L35.3244 50.6714L35 50.0417ZM24.7264 28.9312C23.6249 30.338 22.9584 32.2583 22.9584 34.2628C22.9584 38.7551 25.9447 42.5199 29.0869 45.2229C30.9033 46.7726 32.883 48.1202 34.9908 49.242L35.1991 49.1258C37.2311 47.9684 39.1435 46.6127 40.9082 45.0784C44.0603 42.3159 47.0417 38.5525 47.0417 34.2621C47.0417 32.2575 46.3751 30.338 45.2737 28.9312C44.1758 27.5294 42.6741 26.6667 40.9769 26.6667C38.6295 26.6667 36.8119 28.2016 35.6361 30.605L35 31.9062L34.3639 30.6064C33.1881 28.2016 31.3705 26.6667 29.0231 26.6667C27.3259 26.6667 25.8243 27.5294 24.7264 28.9312Z" fill="white"/>
<path d="M35 50.0417L35.3244 50.6715L35.0099 50.833L34.6912 50.6792L35 50.0417Z" fill="white"/>
</svg>
