<svg width="100" height="89" viewBox="0 0 100 89" fill="none" xmlns="http://www.w3.org/2000/svg">
<path d="M0.49769 35.7269C-2.57533 18.0561 8.85875 1.47957 27.1633 0.616023C35.126 0.240282 44.1941 3.57361 49.4865 9.52613C60.1983 -2.83376 80.5647 -3.25784 91.793 8.79003C103.221 21.051 101.925 35.8038 92.7714 48.1967C86.4481 56.7596 77.0298 67.3682 77.0298 67.3682L68.8876 75.206C62.3651 80.6422 56.7335 85.1467 51.6008 89.0008C35.5616 80.0511 3.73486 54.3403 0.49769 35.7269Z" fill="#E62F2A"/>
<path d="M54.1091 51.8728L47.2036 51.9937L46.9563 37.7155C46.9125 35.193 39.996 34.703 40.0661 38.7021L40.3003 52.1145L33.3947 52.2354L33.1474 37.9572C33.1014 35.3183 26.1959 35.4391 26.2419 38.0781L26.4892 52.3562L19.5837 52.4771L19.1919 29.9788C23.8211 30.9039 29.1376 29.302 33.4604 29.6997C35.4325 29.8799 36.8858 31.1214 37.9255 31.1983C39.2606 31.2972 40.5629 29.8272 42.1126 29.6228C46.1618 29.0911 53.7239 29.5042 53.818 34.9996L54.1113 51.8728H54.1091Z" fill="white"/>
<path d="M56.7138 52.6923C56.5255 50.4489 58.815 50.1566 59.2024 47.8714C59.6401 45.2874 59.0951 26.8937 58.0533 25.4764C57.3507 24.5206 54.4572 25.6346 55.3545 23.7317C55.882 22.6111 62.8532 20.7807 64.4073 20.5654C66.1429 20.3237 65.4885 20.539 65.6767 21.7871C66.1386 24.8545 65.4907 28.5966 65.8562 31.7585C83.3685 22.0618 78.5641 38.3153 79.8862 48.4471C80.0481 49.6886 83.1846 50.7059 81.7488 52.2507C81.3657 52.6616 70.9188 52.8461 70.5226 52.4484C68.5396 50.4489 72.2102 50.0226 72.2058 49.827L71.9344 34.2503C71.9278 33.8789 66.6004 32.6001 65.9263 36.5179C65.6724 37.9923 65.7949 48.1175 66.132 49.3238C66.4691 50.5302 69.3714 50.1918 68.7957 52.4836L56.7116 52.6945L56.7138 52.6923Z" fill="white"/>
</svg>
